#!OML:ASF E:\acrobat2\Project_11_07_03\Capture day 1\Session 1\Acrobat.ASF
:FULLY-SPECIFIED
:DEGREES
447
root 4.10456 28.0234 -23.5091 11.1555 10.7326 0.611464
lowerback 4.87085 1.02 1.51003
upperback 3.24855 1.41955 -0.0943117
thorax 0.646528 0.735968 -1.00206
lowerneck -4.40528 -3.21917 -3.18678
upperneck 13.1562 -4.44738 3.28741
head 4.81264 -2.12793 1.29296
rclavicle -3.6477e-014 1.72943e-014
rhumerus -37.3981 -6.64902 -72.7225
rradius 26.8139
rwrist 8.46333
rhand -2.25587 -21.5734
rfingers 7.12502
rthumb 23.428 -50.1672
lclavicle -3.6477e-014 1.72943e-014
lhumerus -30.2203 -12.8907 80.027
lradius 39.5971
lwrist 11.2781
lhand -11.7463 -19.0053
lfingers 7.12502
lthumb 14.3015 10.4822
rfemur -13.6605 -1.38767 21.5098
rtibia 12.119
rfoot -11.7817 -17.006
rtoes -14.695
lfemur -23.3906 -3.80585 -12.5466
ltibia 23.1536
lfoot 1.3985 -6.83528
ltoes 26.0955
448
root 4.11806 28.0472 -23.468 11.0375 10.6043 0.787358
lowerback 5.04976 1.00993 1.38262
upperback 3.35375 1.40359 -0.138353
thorax 0.652639 0.727285 -0.977626
lowerneck -4.40145 -3.24032 -3.0334
upperneck 13.2778 -4.4871 3.24346
head 4.84625 -2.14169 1.25154
rclavicle -6.45056e-014 9.74045e-015
rhumerus -37.1244 -6.57387 -72.7029
rradius 26.8923
rwrist 8.59712
rhand -2.24008 -21.6978
rfingers 7.12502
rthumb 23.4431 -50.2896
lclavicle -6.45056e-014 9.74045e-015
lhumerus -30.2591 -13.0742 80.2832
lradius 39.3621
lwrist 11.1027
lhand -11.8726 -19.0749
lfingers 7.12502
lthumb 14.1798 10.4212
rfemur -14.0164 -1.36386 21.1887
rtibia 12.4803
rfoot -11.047 -17.1435
rtoes -13.6212
lfemur -23.5693 -3.48122 -13.0438
ltibia 24.7995
lfoot 1.3988 -8.11829
ltoes 27.3943
449
root 4.13085 28.0699 -23.4216 10.899 10.4651 1.00812
lowerback 5.19086 1.00768 1.17991
upperback 3.45725 1.39414 -0.202681
thorax 0.676939 0.720875 -0.931297
lowerneck -4.41877 -3.25752 -2.91637
upperneck 13.487 -4.52686 3.25275
head 4.91235 -2.15309 1.23164
rclavicle -4.67144e-015 -9.74045e-015
rhumerus -36.9562 -6.54016 -72.6919
rradius 27.1034
rwrist 8.63025
rhand -2.25182 -21.7763
rfingers 7.12502
rthumb 23.4318 -50.3696
lclavicle -4.67144e-015 -9.74045e-015
lhumerus -30.3174 -13.3696 80.5351
lradius 39.0951
lwrist 10.9197
lhand -11.9374 -19.1064
lfingers 7.12502
lthumb 14.1173 10.394
rfemur -14.2421 -1.23525 20.7933
rtibia 12.7142
rfoot -10.3569 -17.3477
rtoes -12.2189
lfemur -23.6479 -3.21294 -13.6107
ltibia 26.4508
lfoot 1.44927 -9.31403
ltoes 28.2736
450
root 4.14332 28.0891 -23.3705 10.7534 10.3226 1.23459
lowerback 5.26244 1.01082 0.945309
upperback 3.55859 1.38952 -0.27265
thorax 0.737249 0.71642 -0.871676
lowerneck -4.48639 -3.26511 -2.83493
upperneck 13.7796 -4.55542 3.28948
head 5.01376 -2.15776 1.22537
rclavicle -1.86858e-014 3.00165e-014
rhumerus -36.8684 -6.53936 -72.6947
rradius 27.4271
rwrist 8.55724
rhand -2.28748 -21.8159
rfingers 7.12502
rthumb 23.3976 -50.4136
lclavicle -1.86858e-014 3.00165e-014
lhumerus -30.3885 -13.7749 80.7882
lradius 38.8221
lwrist 10.7519
lhand -11.9002 -19.0596
lfingers 7.12502
lthumb 14.1531 10.4383
rfemur -14.3692 -1.04303 20.372
rtibia 12.8286
rfoot -9.71055 -17.5885
rtoes -10.6797
lfemur -23.6457 -3.0252 -14.1885
ltibia 28.0654
lfoot 1.50262 -10.3782
ltoes 29.1526
451
root 4.15577 28.1034 -23.3155 10.594 10.1939 1.3981
lowerback 5.2616 1.00904 0.753204
upperback 3.66266 1.37957 -0.324443
thorax 0.841212 0.709782 -0.815461
lowerneck -4.57327 -3.25778 -2.78169
upperneck 14.031 -4.56102 3.33068
head 5.10594 -2.15231 1.22637
rclavicle 3.47873e-015 5.96354e-016
rhumerus -36.818 -6.55656 -72.7184
rradius 27.8335
rwrist 8.37623
rhand -2.35321 -21.8177
rfingers 7.12502
rthumb 23.3346 -50.4234
lclavicle 3.47873e-015 5.96354e-016
lhumerus -30.4399 -14.225 81.0321
lradius 38.5377
lwrist 10.5881
lhand -11.704 -18.9302
lfingers 7.12502
lthumb 14.3422 10.5544
rfemur -14.4085 -0.806214 20.0083
rtibia 12.8206
rfoot -9.10349 -17.8581
rtoes -9.1935
lfemur -23.565 -2.94844 -14.6835
ltibia 29.597
lfoot 1.5007 -11.2985
ltoes 30.258
452
root 4.16788 28.112 -23.2574 10.4067 10.0829 1.42996
lowerback 5.21535 0.997469 0.675102
upperback 3.76437 1.36108 -0.342377
thorax 0.969873 0.700389 -0.787141
lowerneck -4.66797 -3.24242 -2.73936
upperneck 14.2557 -4.55439 3.37146
head 5.19121 -2.14152 1.22982
rclavicle -3.57812e-014 6.36111e-015
rhumerus -36.8014 -6.54474 -72.7891
rradius 28.3028
rwrist 8.07109
rhand -2.50945 -21.7499
rfingers 7.12502
rthumb 23.1847 -50.3746
lclavicle -3.57812e-014 6.36111e-015
lhumerus -30.4613 -14.6654 81.25
lradius 38.2443
lwrist 10.4099
lhand -11.3168 -18.709
lfingers 7.12502
lthumb 14.7153 10.7488
rfemur -14.3686 -0.507731 19.7872
rtibia 12.7009
rfoot -8.53881 -18.1649
rtoes -7.90384
lfemur -23.3929 -2.99348 -15.0049
ltibia 30.9872
lfoot 1.35277 -12.0771
ltoes 31.2977
